<?xml version="1.0" encoding="UTF-8" standalone="no"?>
<!DOCTYPE svg PUBLIC "-//W3C//DTD SVG 1.1//EN"
 "http://www.w3.org/Graphics/SVG/1.1/DTD/svg11.dtd">
<!-- Generated by graphviz version 2.38.0 (20140413.2041)
 -->
<!-- Title: LR Pages: 1 -->
<svg width="880pt" height="476pt"
 viewBox="0.00 0.00 880.05 476.00" xmlns="http://www.w3.org/2000/svg" xmlns:xlink="http://www.w3.org/1999/xlink">
<g id="graph0" class="graph" transform="scale(1 1) rotate(0) translate(4 472)">
<title>LR</title>
<polygon fill="white" stroke="none" points="-4,4 -4,-472 876.053,-472 876.053,4 -4,4"/>
<!-- integrationTimeSeconds -->
<g id="node1" class="node"><title>integrationTimeSeconds</title>
<ellipse fill="lightblue" stroke="lightblue" cx="367.095" cy="-378" rx="105.376" ry="18"/>
<text text-anchor="middle" x="367.095" y="-373.8" font-family="Times,serif" font-size="14.00">integrationTimeSeconds</text>
</g>
<!-- normDN -->
<g id="node14" class="node"><title>normDN</title>
<ellipse fill="lightgrey" stroke="black" cx="367.095" cy="-306" rx="45.2266" ry="18"/>
<text text-anchor="middle" x="367.095" y="-301.8" font-family="Times,serif" font-size="14.00">normDN</text>
</g>
<!-- integrationTimeSeconds&#45;&gt;normDN -->
<g id="edge13" class="edge"><title>integrationTimeSeconds&#45;&gt;normDN</title>
<path fill="none" stroke="black" d="M367.095,-359.697C367.095,-351.983 367.095,-342.712 367.095,-334.112"/>
<polygon fill="black" stroke="black" points="370.595,-334.104 367.095,-324.104 363.595,-334.104 370.595,-334.104"/>
</g>
<!-- viewingAngle -->
<g id="node2" class="node"><title>viewingAngle</title>
<ellipse fill="lightblue" stroke="lightblue" cx="788.095" cy="-234" rx="65.9929" ry="18"/>
<text text-anchor="middle" x="788.095" y="-229.8" font-family="Times,serif" font-size="14.00">viewingAngle</text>
</g>
<!-- projectedCollectionArea -->
<g id="node3" class="node"><title>projectedCollectionArea</title>
<ellipse fill="lightblue" stroke="lightblue" cx="766.095" cy="-162" rx="105.915" ry="18"/>
<text text-anchor="middle" x="766.095" y="-157.8" font-family="Times,serif" font-size="14.00">projectedCollectionArea</text>
</g>
<!-- viewingAngle&#45;&gt;projectedCollectionArea -->
<g id="edge1" class="edge"><title>viewingAngle&#45;&gt;projectedCollectionArea</title>
<path fill="none" stroke="black" d="M782.77,-216.055C780.32,-208.261 777.353,-198.822 774.606,-190.079"/>
<polygon fill="black" stroke="black" points="777.862,-188.766 771.524,-180.275 771.184,-190.865 777.862,-188.766"/>
</g>
<!-- spectralRadiance -->
<g id="node17" class="node"><title>spectralRadiance</title>
<ellipse fill="lightgrey" stroke="black" cx="457.095" cy="-90" rx="76.9811" ry="18"/>
<text text-anchor="middle" x="457.095" y="-85.8" font-family="Times,serif" font-size="14.00">spectralRadiance</text>
</g>
<!-- projectedCollectionArea&#45;&gt;spectralRadiance -->
<g id="edge18" class="edge"><title>projectedCollectionArea&#45;&gt;spectralRadiance</title>
<path fill="none" stroke="black" d="M705.047,-147.17C651.565,-135.055 574.153,-117.518 520.099,-105.273"/>
<polygon fill="black" stroke="black" points="520.814,-101.846 510.288,-103.05 519.268,-108.673 520.814,-101.846"/>
</g>
<!-- wavelengths -->
<g id="node4" class="node"><title>wavelengths</title>
<ellipse fill="lightgreen" stroke="lightgreen" cx="573.095" cy="-450" rx="59.1103" ry="18"/>
<text text-anchor="middle" x="573.095" y="-445.8" font-family="Times,serif" font-size="14.00">wavelengths</text>
</g>
<!-- wavelengthSpread -->
<g id="node5" class="node"><title>wavelengthSpread</title>
<ellipse fill="lightgreen" stroke="lightgreen" cx="573.095" cy="-378" rx="82.2256" ry="18"/>
<text text-anchor="middle" x="573.095" y="-373.8" font-family="Times,serif" font-size="14.00">wavelengthSpread</text>
</g>
<!-- wavelengths&#45;&gt;wavelengthSpread -->
<g id="edge2" class="edge"><title>wavelengths&#45;&gt;wavelengthSpread</title>
<path fill="none" stroke="black" d="M573.095,-431.697C573.095,-423.983 573.095,-414.712 573.095,-406.112"/>
<polygon fill="black" stroke="black" points="576.595,-406.104 573.095,-396.104 569.595,-406.104 576.595,-406.104"/>
</g>
<!-- wavelengthSpread&#45;&gt;normDN -->
<g id="edge14" class="edge"><title>wavelengthSpread&#45;&gt;normDN</title>
<path fill="none" stroke="black" d="M530.412,-362.496C495.187,-350.526 445.43,-333.619 410.114,-321.618"/>
<polygon fill="black" stroke="black" points="411.154,-318.275 400.56,-318.371 408.902,-324.903 411.154,-318.275"/>
</g>
<!-- diameterFibre -->
<g id="node6" class="node"><title>diameterFibre</title>
<ellipse fill="lightgreen" stroke="lightgreen" cx="636.095" cy="-306" rx="65.4033" ry="18"/>
<text text-anchor="middle" x="636.095" y="-301.8" font-family="Times,serif" font-size="14.00">diameterFibre</text>
</g>
<!-- collectionArea -->
<g id="node7" class="node"><title>collectionArea</title>
<ellipse fill="lightgreen" stroke="lightgreen" cx="636.095" cy="-234" rx="67.7529" ry="18"/>
<text text-anchor="middle" x="636.095" y="-229.8" font-family="Times,serif" font-size="14.00">collectionArea</text>
</g>
<!-- diameterFibre&#45;&gt;collectionArea -->
<g id="edge3" class="edge"><title>diameterFibre&#45;&gt;collectionArea</title>
<path fill="none" stroke="black" d="M636.095,-287.697C636.095,-279.983 636.095,-270.712 636.095,-262.112"/>
<polygon fill="black" stroke="black" points="639.595,-262.104 636.095,-252.104 632.595,-262.104 639.595,-262.104"/>
</g>
<!-- collectionArea&#45;&gt;projectedCollectionArea -->
<g id="edge19" class="edge"><title>collectionArea&#45;&gt;projectedCollectionArea</title>
<path fill="none" stroke="black" d="M664.624,-217.638C682.902,-207.796 706.868,-194.891 726.92,-184.095"/>
<polygon fill="black" stroke="black" points="728.677,-187.123 735.822,-179.301 725.358,-180.96 728.677,-187.123"/>
</g>
<!-- spectralIrradiance -->
<g id="node18" class="node"><title>spectralIrradiance</title>
<ellipse fill="lightgrey" stroke="black" cx="562.095" cy="-162" rx="80.3899" ry="18"/>
<text text-anchor="middle" x="562.095" y="-157.8" font-family="Times,serif" font-size="14.00">spectralIrradiance</text>
</g>
<!-- collectionArea&#45;&gt;spectralIrradiance -->
<g id="edge17" class="edge"><title>collectionArea&#45;&gt;spectralIrradiance</title>
<path fill="none" stroke="black" d="M618.558,-216.411C609.226,-207.583 597.585,-196.572 587.301,-186.844"/>
<polygon fill="black" stroke="black" points="589.433,-184.042 579.763,-179.713 584.622,-189.127 589.433,-184.042"/>
</g>
<!-- IRF&#45;J/Count -->
<g id="node8" class="node"><title>IRF&#45;J/Count</title>
<ellipse fill="lightgreen" stroke="lightgreen" cx="244.095" cy="-306" rx="59.1469" ry="18"/>
<text text-anchor="middle" x="244.095" y="-301.8" font-family="Times,serif" font-size="14.00">IRF&#45;J/Count</text>
</g>
<!-- spectralFlux -->
<g id="node15" class="node"><title>spectralFlux</title>
<ellipse fill="lightgrey" stroke="black" cx="367.095" cy="-234" rx="58.5444" ry="18"/>
<text text-anchor="middle" x="367.095" y="-229.8" font-family="Times,serif" font-size="14.00">spectralFlux</text>
</g>
<!-- IRF&#45;J/Count&#45;&gt;spectralFlux -->
<g id="edge15" class="edge"><title>IRF&#45;J/Count&#45;&gt;spectralFlux</title>
<path fill="none" stroke="black" d="M270.784,-289.811C288.595,-279.675 312.213,-266.234 331.604,-255.198"/>
<polygon fill="black" stroke="black" points="333.498,-258.147 340.458,-250.159 330.036,-252.064 333.498,-258.147"/>
</g>
<!-- numericalAperture -->
<g id="node9" class="node"><title>numericalAperture</title>
<ellipse fill="lightgreen" stroke="lightgreen" cx="757.095" cy="-378" rx="83.9257" ry="18"/>
<text text-anchor="middle" x="757.095" y="-373.8" font-family="Times,serif" font-size="14.00">numericalAperture</text>
</g>
<!-- fullAngle -->
<g id="node10" class="node"><title>fullAngle</title>
<ellipse fill="lightgreen" stroke="lightgreen" cx="501.095" cy="-306" rx="48.0916" ry="18"/>
<text text-anchor="middle" x="501.095" y="-301.8" font-family="Times,serif" font-size="14.00">fullAngle</text>
</g>
<!-- numericalAperture&#45;&gt;fullAngle -->
<g id="edge4" class="edge"><title>numericalAperture&#45;&gt;fullAngle</title>
<path fill="none" stroke="black" d="M707.384,-363.489C649.61,-347.786 562.095,-324 562.095,-324 562.095,-324 556.257,-322.373 548.194,-320.126"/>
<polygon fill="black" stroke="black" points="548.909,-316.692 538.336,-317.379 547.03,-323.435 548.909,-316.692"/>
</g>
<!-- solidAngle -->
<g id="node11" class="node"><title>solidAngle</title>
<ellipse fill="lightgreen" stroke="lightgreen" cx="497.095" cy="-234" rx="53.3302" ry="18"/>
<text text-anchor="middle" x="497.095" y="-229.8" font-family="Times,serif" font-size="14.00">solidAngle</text>
</g>
<!-- fullAngle&#45;&gt;solidAngle -->
<g id="edge5" class="edge"><title>fullAngle&#45;&gt;solidAngle</title>
<path fill="none" stroke="black" d="M500.106,-287.697C499.666,-279.983 499.136,-270.712 498.644,-262.112"/>
<polygon fill="black" stroke="black" points="502.137,-261.888 498.073,-252.104 495.149,-262.288 502.137,-261.888"/>
</g>
<!-- spectralIntensity -->
<g id="node16" class="node"><title>spectralIntensity</title>
<ellipse fill="lightgrey" stroke="black" cx="389.095" cy="-162" rx="74.713" ry="18"/>
<text text-anchor="middle" x="389.095" y="-157.8" font-family="Times,serif" font-size="14.00">spectralIntensity</text>
</g>
<!-- solidAngle&#45;&gt;spectralIntensity -->
<g id="edge16" class="edge"><title>solidAngle&#45;&gt;spectralIntensity</title>
<path fill="none" stroke="black" d="M473.661,-217.811C458.795,-208.176 439.321,-195.554 422.808,-184.851"/>
<polygon fill="black" stroke="black" points="424.282,-181.636 413.987,-179.134 420.475,-187.51 424.282,-181.636"/>
</g>
<!-- referencePanel&#45;Rλ -->
<g id="node12" class="node"><title>referencePanel&#45;Rλ</title>
<ellipse fill="lightgreen" stroke="lightgreen" cx="86.0951" cy="-378" rx="86.1903" ry="18"/>
<text text-anchor="middle" x="86.0951" y="-373.8" font-family="Times,serif" font-size="14.00">referencePanel&#45;Rλ</text>
</g>
<!-- referencePanel&#45;Rλ&#45;&gt;normDN -->
<g id="edge20" class="edge"><title>referencePanel&#45;Rλ&#45;&gt;normDN</title>
<path fill="none" stroke="black" d="M141.092,-364.103C207.989,-348.414 312.095,-324 312.095,-324 312.095,-324 316.272,-322.709 322.323,-320.839"/>
<polygon fill="black" stroke="black" points="323.742,-324.063 332.263,-317.766 321.675,-317.376 323.742,-324.063"/>
</g>
<!-- DN -->
<g id="node13" class="node"><title>DN</title>
<ellipse fill="lightgrey" stroke="black" cx="217.095" cy="-378" rx="27" ry="18"/>
<text text-anchor="middle" x="217.095" y="-373.8" font-family="Times,serif" font-size="14.00">DN</text>
</g>
<!-- DN&#45;&gt;normDN -->
<g id="edge6" class="edge"><title>DN&#45;&gt;normDN</title>
<path fill="none" stroke="black" d="M238.453,-366.915C246.204,-363.254 253.095,-360 253.095,-360 253.095,-360 295.973,-340.065 329.136,-324.648"/>
<polygon fill="black" stroke="black" points="331.03,-327.627 338.622,-320.237 328.079,-321.279 331.03,-327.627"/>
</g>
<!-- normDN&#45;&gt;spectralFlux -->
<g id="edge7" class="edge"><title>normDN&#45;&gt;spectralFlux</title>
<path fill="none" stroke="black" d="M367.095,-287.697C367.095,-279.983 367.095,-270.712 367.095,-262.112"/>
<polygon fill="black" stroke="black" points="370.595,-262.104 367.095,-252.104 363.595,-262.104 370.595,-262.104"/>
</g>
<!-- spectralFlux&#45;&gt;spectralIntensity -->
<g id="edge8" class="edge"><title>spectralFlux&#45;&gt;spectralIntensity</title>
<path fill="none" stroke="black" d="M372.421,-216.055C374.87,-208.261 377.837,-198.822 380.585,-190.079"/>
<polygon fill="black" stroke="black" points="384.006,-190.865 383.666,-180.275 377.328,-188.766 384.006,-190.865"/>
</g>
<!-- spectralFlux&#45;&gt;spectralIrradiance -->
<g id="edge10" class="edge"><title>spectralFlux&#45;&gt;spectralIrradiance</title>
<path fill="none" stroke="black" d="M403.773,-219.834C434.299,-208.876 478.068,-193.164 511.852,-181.036"/>
<polygon fill="black" stroke="black" points="513.314,-184.23 521.543,-177.557 510.948,-177.642 513.314,-184.23"/>
</g>
<!-- spectralIntensity&#45;&gt;spectralRadiance -->
<g id="edge9" class="edge"><title>spectralIntensity&#45;&gt;spectralRadiance</title>
<path fill="none" stroke="black" d="M405.21,-144.411C413.639,-135.734 424.119,-124.946 433.449,-115.342"/>
<polygon fill="black" stroke="black" points="436.166,-117.568 440.623,-107.956 431.145,-112.69 436.166,-117.568"/>
</g>
<!-- spectralDirectionalHemisphericalReflectance -->
<g id="node19" class="node"><title>spectralDirectionalHemisphericalReflectance</title>
<ellipse fill="lightgrey" stroke="black" cx="509.095" cy="-18" rx="186.261" ry="18"/>
<text text-anchor="middle" x="509.095" y="-13.8" font-family="Times,serif" font-size="14.00">spectralDirectionalHemisphericalReflectance</text>
</g>
<!-- spectralRadiance&#45;&gt;spectralDirectionalHemisphericalReflectance -->
<g id="edge12" class="edge"><title>spectralRadiance&#45;&gt;spectralDirectionalHemisphericalReflectance</title>
<path fill="none" stroke="black" d="M469.683,-72.055C475.85,-63.7526 483.404,-53.5837 490.243,-44.3778"/>
<polygon fill="black" stroke="black" points="493.108,-46.3899 496.262,-36.2753 487.489,-42.2156 493.108,-46.3899"/>
</g>
<!-- spectralIrradiance&#45;&gt;spectralDirectionalHemisphericalReflectance -->
<g id="edge11" class="edge"><title>spectralIrradiance&#45;&gt;spectralDirectionalHemisphericalReflectance</title>
<path fill="none" stroke="black" d="M558.432,-143.84C552.911,-117.978 543.095,-72 543.095,-72 543.095,-72 534.269,-58.2422 525.611,-44.7456"/>
<polygon fill="black" stroke="black" points="528.386,-42.5884 520.04,-36.0613 522.494,-46.3681 528.386,-42.5884"/>
</g>
</g>
</svg>

